<svg width="46" height="56" viewBox="0 0 46 56" fill="none" xmlns="http://www.w3.org/2000/svg">
<path d="M44.1298 19.57C43.8838 19.724 38.0278 22.974 38.0278 30.18C38.3038 38.398 45.4178 41.28 45.5398 41.28C45.4178 41.434 44.4658 45.206 41.6458 49.16C39.4078 52.566 36.9238 56 33.1518 56C29.5638 56 28.2758 53.73 24.1358 53.73C19.6898 53.73 18.4318 56 15.0278 56C11.2558 56 8.58784 52.382 6.22784 49.008C3.16184 44.592 0.555845 37.662 0.463845 31.008C0.401845 27.482 1.07784 24.016 2.79384 21.072C5.21584 16.962 9.53984 14.172 14.2618 14.08C17.8798 13.958 21.0998 16.564 23.3078 16.564C25.4238 16.564 29.3798 14.08 33.8558 14.08C35.7878 14.082 40.9398 14.664 44.1298 19.57ZM23.0018 13.376C22.3578 10.156 24.1358 6.93604 25.7918 4.88204C27.9078 2.39804 31.2498 0.712036 34.1318 0.712036C34.3158 3.93204 33.1498 7.09004 31.0658 9.39004C29.1958 11.874 25.9758 13.744 23.0018 13.376Z" fill="white"/>
</svg>
