<svg width="25" height="24" viewBox="0 0 25 24" fill="none" xmlns="http://www.w3.org/2000/svg">
<path d="M14.8493 15.4L19.477 10.811C19.6507 10.6206 19.7439 10.3713 19.7372 10.1147C19.7306 9.85805 19.6246 9.61379 19.4412 9.43247C19.2579 9.25115 19.0112 9.14665 18.7522 9.14061C18.4933 9.13456 18.2419 9.22744 18.0501 9.4L13.4224 13.986C13.2332 14.1735 12.9766 14.2788 12.709 14.2788C12.4414 14.2788 12.1848 14.1735 11.9956 13.986L7.36786 9.4C7.17852 9.21249 6.92176 9.10721 6.65408 9.1073C6.3864 9.10739 6.12972 9.21286 5.9405 9.4005C5.75129 9.58814 5.64505 9.84259 5.64514 10.1079C5.64524 10.3731 5.75166 10.6275 5.94101 10.815L10.5687 15.4C11.1364 15.9624 11.9063 16.2784 12.709 16.2784C13.5117 16.2784 14.2816 15.9624 14.8493 15.4V15.4Z" fill="#A8A8A8"/>
</svg>
