<svg width="22" height="22" viewBox="0 0 22 22" fill="none" xmlns="http://www.w3.org/2000/svg">
<path d="M21.698 15.427C22.1007 15.8298 22.1007 16.4827 21.698 16.8854L18.2605 20.3222C17.6155 20.9672 16.5 20.5152 16.5 19.593V17.875H13.9741C13.9034 17.875 13.8334 17.8604 13.7686 17.8323C13.7037 17.8041 13.6454 17.7629 13.5971 17.7112L10.5654 14.4629L12.8571 12.0076L15.125 14.4375H16.5V12.7196C16.5 11.7984 17.6147 11.3446 18.2605 11.9903L21.698 15.427ZM0.515625 7.5625H4.125L6.39293 9.99242L8.68459 7.53706L5.65288 4.28879C5.60464 4.2371 5.54628 4.19589 5.48143 4.16771C5.41658 4.13953 5.34663 4.12499 5.27592 4.125H0.515625C0.230871 4.125 0 4.35587 0 4.64062V7.04687C0 7.33163 0.230871 7.5625 0.515625 7.5625ZM16.5 7.5625V9.28056C16.5 10.2027 17.6155 10.6547 18.2605 10.0098L21.698 6.57297C22.1007 6.17022 22.1007 5.51727 21.698 5.11457L18.2605 1.67788C17.6147 1.03215 16.5 1.48594 16.5 2.40706V4.125H13.9741C13.9034 4.125 13.8334 4.13955 13.7686 4.16773C13.7037 4.1959 13.6454 4.23711 13.5971 4.28879L4.125 14.4375H0.515625C0.230871 14.4375 0 14.6684 0 14.9531V17.3594C0 17.6441 0.230871 17.875 0.515625 17.875H5.27592C5.41883 17.875 5.55534 17.8157 5.65288 17.7112L15.125 7.5625H16.5Z" fill="#C7CCD1"/>
</svg>
