<svg width="25" height="25" viewBox="0 0 25 25" fill="none" xmlns="http://www.w3.org/2000/svg">
<circle cx="12.5" cy="12.5" r="12.5" fill="#A8A8A8"/>
<rect width="14" height="14" transform="translate(6 5)" fill="#A8A8A8"/>
<path d="M20 8.9375V16.8125C20 17.5371 19.4121 18.125 18.6875 18.125H7.3125C6.58789 18.125 6 17.5371 6 16.8125V8.9375C6 8.21289 6.58789 7.625 7.3125 7.625H9.71875L10.0551 6.72539C10.2465 6.21406 10.7359 5.875 11.2828 5.875H14.7145C15.2613 5.875 15.7508 6.21406 15.9422 6.72539L16.2812 7.625H18.6875C19.4121 7.625 20 8.21289 20 8.9375ZM16.2812 12.875C16.2812 11.0648 14.8102 9.59375 13 9.59375C11.1898 9.59375 9.71875 11.0648 9.71875 12.875C9.71875 14.6852 11.1898 16.1562 13 16.1562C14.8102 16.1562 16.2812 14.6852 16.2812 12.875ZM15.4062 12.875C15.4062 14.2012 14.3262 15.2812 13 15.2812C11.6738 15.2812 10.5938 14.2012 10.5938 12.875C10.5938 11.5488 11.6738 10.4688 13 10.4688C14.3262 10.4688 15.4062 11.5488 15.4062 12.875Z" fill="white"/>
</svg>
