<svg width="31" height="30" viewBox="0 0 31 30" fill="none" xmlns="http://www.w3.org/2000/svg">
<path d="M15.4993 0.46875C7.39897 0.46875 0.835938 6.97266 0.835938 15C0.835938 23.0273 7.39897 29.5312 15.4993 29.5312C23.5996 29.5312 30.1626 23.0273 30.1626 15C30.1626 6.97266 23.5996 0.46875 15.4993 0.46875ZM15.4993 26.7188C8.96582 26.7188 3.67401 21.4746 3.67401 15C3.67401 8.52539 8.96582 3.28125 15.4993 3.28125C22.0328 3.28125 27.3246 8.52539 27.3246 15C27.3246 21.4746 22.0328 26.7188 15.4993 26.7188ZM19.1533 20.6016L14.1335 16.9863C13.9502 16.8516 13.8438 16.6406 13.8438 16.418V6.79688C13.8438 6.41016 14.163 6.09375 14.5533 6.09375H16.4453C16.8355 6.09375 17.1548 6.41016 17.1548 6.79688V15.0996L21.1045 17.9473C21.4238 18.1758 21.4888 18.6152 21.2582 18.9316L20.1466 20.4492C19.916 20.7598 19.4726 20.8301 19.1533 20.6016Z" fill="white"/>
</svg>
