<svg width="34" height="26" viewBox="0 0 34 26" fill="none" xmlns="http://www.w3.org/2000/svg">
<path d="M3.26723 26C2.36874 26 1.59985 25.682 0.960566 25.0461C0.320189 24.4091 0 23.6438 0 22.75V3.25C0 2.35625 0.320189 1.59142 0.960566 0.9555C1.59985 0.3185 2.36874 0 3.26723 0H11.7212C12.1568 0 12.5723 0.0812501 12.9676 0.24375C13.3619 0.40625 13.7088 0.636458 14.0083 0.934375L16.3362 3.25H29.4051C30.3036 3.25 31.073 3.5685 31.7134 4.2055C32.3527 4.84142 32.6723 5.60625 32.6723 6.5H6.53446C5.63597 6.5 4.86708 6.81796 4.2278 7.45387C3.58742 8.09087 3.26723 8.85625 3.26723 9.75V22.75L6.49362 12.0656C6.71144 11.3615 7.11331 10.7992 7.69923 10.3789C8.28406 9.95962 8.93043 9.75 9.63833 9.75H30.712C31.8283 9.75 32.7066 10.1898 33.347 11.0695C33.9863 11.9502 34.1562 12.9052 33.8567 13.9344L30.9162 23.6844C30.6984 24.3885 30.297 24.9508 29.7122 25.3711C29.1263 25.7904 28.4794 26 27.7715 26H3.26723Z" fill="white"/>
</svg>
