<svg width="22" height="22" viewBox="0 0 22 22" fill="none" xmlns="http://www.w3.org/2000/svg">
<path d="M20.0209 5.5834L16.4166 1.9791C16.0298 1.5923 15.5052 1.375 14.9582 1.375H3.4375C2.2984 1.375 1.375 2.2984 1.375 3.4375V18.5625C1.375 19.7016 2.2984 20.625 3.4375 20.625H18.5625C19.7016 20.625 20.625 19.7016 20.625 18.5625V7.0418C20.625 6.4948 20.4077 5.97019 20.0209 5.5834ZM13.0625 3.4375V6.875H7.5625V3.4375H13.0625ZM18.3047 18.5625H3.69531C3.62694 18.5625 3.56136 18.5353 3.51301 18.487C3.46466 18.4386 3.4375 18.3731 3.4375 18.3047V3.69531C3.4375 3.62694 3.46466 3.56136 3.51301 3.51301C3.56136 3.46466 3.62694 3.4375 3.69531 3.4375H5.5V7.90625C5.5 8.4758 5.9617 8.9375 6.53125 8.9375H14.0938C14.6633 8.9375 15.125 8.4758 15.125 7.90625V3.6043L18.487 6.96631C18.5109 6.99025 18.5299 7.01868 18.5429 7.04996C18.5558 7.08124 18.5625 7.11477 18.5625 7.14862V18.3047C18.5625 18.3731 18.5353 18.4386 18.487 18.487C18.4386 18.5353 18.3731 18.5625 18.3047 18.5625ZM11 9.96875C8.91503 9.96875 7.21875 11.665 7.21875 13.75C7.21875 15.835 8.91503 17.5312 11 17.5312C13.085 17.5312 14.7812 15.835 14.7812 13.75C14.7812 11.665 13.085 9.96875 11 9.96875ZM11 15.4688C10.0523 15.4688 9.28125 14.6977 9.28125 13.75C9.28125 12.8023 10.0523 12.0312 11 12.0312C11.9477 12.0312 12.7188 12.8023 12.7188 13.75C12.7188 14.6977 11.9477 15.4688 11 15.4688Z" fill="#C7CCD1"/>
</svg>
