<svg width="123" height="123" viewBox="0 0 123 123" fill="none" xmlns="http://www.w3.org/2000/svg">
<path d="M104.535 41.2685C109.443 51.7089 110.389 63.5776 107.195 74.6634C104.001 85.7492 96.8866 95.2959 87.1762 101.525C77.4658 107.754 65.822 110.24 54.4142 108.521C43.0065 106.802 32.6128 100.994 25.1696 92.1798" stroke="#82B1FF"/>
<path d="M18.4651 81.7305C13.5569 71.2901 12.6115 59.4214 15.8051 48.3356C18.9986 37.2498 26.1134 27.7031 35.8238 21.4741C45.5342 15.245 57.178 12.7585 68.5858 14.4778C79.9935 16.1971 90.3872 22.005 97.8304 30.8193" stroke="#82B1FF"/>
<path d="M22.9138 89.2685L28.408 89.347L22.4174 94.7408L22.9138 89.2685Z" fill="#82B1FF"/>
<path d="M100.086 33.7296L94.592 33.651L100.583 28.2573L100.086 33.7296Z" fill="#82B1FF"/>
<path fill-rule="evenodd" clip-rule="evenodd" d="M61.3655 88.9888C76.6215 88.9888 88.9889 76.6214 88.9889 61.3654C88.9889 46.1095 76.6215 33.7421 61.3655 33.7421C46.1096 33.7421 33.7422 46.1095 33.7422 61.3654C33.7422 76.6214 46.1096 88.9888 61.3655 88.9888ZM56.9013 52.018C55.5528 50.6695 53.3666 50.6695 52.0181 52.018C50.6697 53.3664 50.6697 55.5527 52.0181 56.9012L56.4824 61.3654L52.0181 65.8297C50.6697 67.1781 50.6697 69.3644 52.0181 70.7128C53.3666 72.0613 55.5528 72.0613 56.9013 70.7128L61.3655 66.2486L65.8298 70.7128C67.1782 72.0613 69.3645 72.0613 70.713 70.7128C72.0614 69.3644 72.0614 67.1781 70.713 65.8297L66.2487 61.3654L70.713 56.9012C72.0614 55.5527 72.0614 53.3664 70.713 52.018C69.3645 50.6695 67.1782 50.6695 65.8298 52.018L61.3655 56.4822L56.9013 52.018Z" fill="#82B1FF"/>
</svg>
