<svg width="21" height="20" viewBox="0 0 21 20" fill="none" xmlns="http://www.w3.org/2000/svg">
<g clip-path="url(#clip0_2865_500)">
<path d="M13.9491 2.41664C13.2933 1.86081 12.6058 1.27664 11.9058 0.639976C11.6405 0.398707 11.3257 0.218352 10.9834 0.111541C10.6411 0.00473099 10.2795 -0.0259516 9.92413 0.0216424C9.57975 0.067137 9.24957 0.187752 8.95696 0.374955C8.66435 0.562159 8.41644 0.811376 8.23079 1.10498C7.23743 2.76496 6.5351 4.58252 6.15413 6.47914C6.00462 6.2633 5.87201 6.03624 5.75746 5.79998C5.63951 5.55146 5.46188 5.33601 5.24042 5.17283C5.01896 5.00966 4.76055 4.90384 4.48825 4.86481C4.21595 4.82578 3.93822 4.85475 3.67985 4.94915C3.42147 5.04355 3.19047 5.20043 3.00746 5.40581C1.60968 6.83418 0.834795 8.75821 0.852461 10.7566C0.833143 12.7981 1.49708 14.7873 2.73864 16.4079C3.98019 18.0284 5.72805 19.1873 7.70413 19.7C8.46065 19.8903 9.23737 19.9888 10.0175 19.9933C10.0425 19.9933 10.0666 20 10.0916 20C10.2008 20 10.3083 19.9908 10.4158 19.9833C12.8088 19.9058 15.0778 18.8999 16.7421 17.1787C18.4064 15.4574 19.3354 13.1559 19.3325 10.7616C19.3291 6.98664 16.8358 4.86998 13.9491 2.41664ZM10.2825 18.3116C10.1875 18.3116 10.0925 18.3216 9.99663 18.3208C9.37642 18.2736 8.78511 18.0394 8.30079 17.6491C7.9428 17.4075 7.64017 17.0926 7.41291 16.7252C7.18565 16.3579 7.03894 15.9465 6.98246 15.5183C6.84079 14.1666 7.67413 12.3991 9.37663 10.4025C9.46482 10.2994 9.57439 10.2169 9.69772 10.1604C9.82104 10.104 9.95518 10.0752 10.0908 10.0758C10.2246 10.0748 10.357 10.1035 10.4784 10.1597C10.5999 10.2158 10.7074 10.2982 10.7933 10.4008C12.3533 12.2525 13.21 13.9608 13.21 15.2116C13.2076 16.0035 12.904 16.7648 12.3608 17.3408C11.8175 17.9169 11.0753 18.2646 10.285 18.3133L10.2825 18.3116ZM14.7375 16.7358C14.6883 16.7741 14.6341 16.805 14.5841 16.8416C14.7764 16.3191 14.8754 15.7668 14.8766 15.21C14.8766 13.1041 13.3475 10.8475 12.0658 9.32497C11.8235 9.03806 11.5216 8.80741 11.1811 8.6491C10.8406 8.49079 10.4696 8.40862 10.0941 8.40831H10.0908C9.71448 8.40764 9.34252 8.48875 9.00064 8.64602C8.65877 8.80328 8.35515 9.03296 8.11079 9.31914V9.31914C6.07329 11.7058 5.13746 13.85 5.32913 15.6925C5.37464 16.1202 5.48391 16.5387 5.65329 16.9341C4.67794 16.2274 3.88509 15.2984 3.34047 14.2241C2.79585 13.1498 2.51515 11.9611 2.52163 10.7566C2.51367 9.97086 2.66317 9.19145 2.96129 8.46438C3.25942 7.7373 3.70014 7.0773 4.25746 6.52331C4.44969 6.92291 4.68051 7.30277 4.94663 7.65748C5.12545 7.89923 5.37117 8.08331 5.65344 8.18698C5.93572 8.29065 6.24217 8.30936 6.53496 8.24081C6.83362 8.17474 7.10675 8.02358 7.32134 7.8056C7.53592 7.58761 7.68277 7.31214 7.74413 7.01247C8.07893 5.24279 8.71873 3.54475 9.63496 1.99414C9.69064 1.9066 9.76503 1.8325 9.85278 1.77716C9.94054 1.72183 10.0395 1.68665 10.1425 1.67414C10.2576 1.65865 10.3747 1.6686 10.4856 1.7033C10.5965 1.738 10.6984 1.79661 10.7841 1.87498C11.4991 2.52498 12.2008 3.12498 12.8675 3.68914C15.6491 6.05164 17.66 7.75831 17.66 10.7616C17.6635 11.9148 17.402 13.0534 16.8958 14.0896C16.3895 15.1257 15.6519 16.0316 14.74 16.7375L14.7375 16.7358Z" fill="currentColor"/>
</g>
<defs>
<clipPath id="clip0_2865_500">
<rect width="20" height="20" fill="white" transform="translate(0.0908203)"/>
</clipPath>
</defs>
</svg>
