<svg width="22" height="22" viewBox="0 0 22 22" fill="none" xmlns="http://www.w3.org/2000/svg">
<path d="M14.7871 13.0625C13.5613 13.0625 12.972 13.75 10.9604 13.75C8.94877 13.75 8.36366 13.0625 7.13364 13.0625C3.96464 13.0625 1.39355 15.6492 1.39355 18.8375V19.9375C1.39355 21.0762 2.3118 22 3.44359 22H18.4771C19.6089 22 20.5272 21.0762 20.5272 19.9375V18.8375C20.5272 15.6492 17.9561 13.0625 14.7871 13.0625ZM18.4771 19.9375H3.44359V18.8375C3.44359 16.7922 5.10069 15.125 7.13364 15.125C7.75719 15.125 8.7694 15.8125 10.9604 15.8125C13.1684 15.8125 14.1593 15.125 14.7871 15.125C16.82 15.125 18.4771 16.7922 18.4771 18.8375V19.9375ZM10.9604 12.375C14.3557 12.375 17.1105 9.60352 17.1105 6.1875C17.1105 2.77148 14.3557 0 10.9604 0C7.565 0 4.81027 2.77148 4.81027 6.1875C4.81027 9.60352 7.565 12.375 10.9604 12.375ZM10.9604 2.0625C13.2197 2.0625 15.0604 3.91445 15.0604 6.1875C15.0604 8.46055 13.2197 10.3125 10.9604 10.3125C8.70106 10.3125 6.8603 8.46055 6.8603 6.1875C6.8603 3.91445 8.70106 2.0625 10.9604 2.0625Z" fill="#C7CCD1"/>
</svg>
