<svg width="24" height="31" viewBox="0 0 24 31" fill="none" xmlns="http://www.w3.org/2000/svg">
<path d="M15.4724 5.81165C17.3941 5.81165 18.9532 4.51008 18.9532 2.90582C18.9532 1.30157 17.3941 0 15.4724 0C13.5507 0 11.9916 1.30157 11.9916 2.90582C11.9916 4.51008 13.5507 5.81165 15.4724 5.81165ZM22.3252 14.8379L20.6356 14.1235L19.9322 12.3437C18.8662 9.6437 15.893 7.75492 12.521 7.74886C9.91043 7.74281 8.46736 8.3603 5.75525 9.27442C4.1889 9.8011 2.90537 10.8 2.1512 12.0713L1.66534 12.8946C1.09971 13.8511 1.55657 15.0134 2.69507 15.4917C3.82632 15.9699 5.20413 15.5825 5.77701 14.626L6.26287 13.8027C6.51667 13.3789 6.93727 13.0459 7.45938 12.8704L9.40282 12.2166L8.30057 15.8912C7.92349 17.1504 8.32958 18.4883 9.38106 19.4509L13.7248 23.41C14.2469 23.8883 14.6167 24.4634 14.8053 25.0869L16.1323 29.5244C16.4441 30.5596 17.7059 31.1952 18.9459 30.9349C20.186 30.6746 20.9474 29.6212 20.6356 28.586L19.0257 23.1982C18.8372 22.5746 18.4673 21.9935 17.9452 21.5213L14.6457 18.5125L15.893 14.3536L16.2919 15.3524C16.6762 16.3271 17.5029 17.1323 18.5906 17.5923L20.2802 18.3067C21.4115 18.7849 22.7893 18.3975 23.3622 17.441C23.9205 16.4906 23.4637 15.3161 22.3252 14.8379ZM5.72625 23.3556C5.49419 23.8459 5.14612 24.2878 4.69652 24.6571L1.07071 27.6901C0.164256 28.4468 0.164256 29.6757 1.07071 30.4325C1.97716 31.1892 3.44199 31.1892 4.34844 30.4325L8.6559 26.8365C9.09825 26.4672 9.44633 26.0253 9.68563 25.5349L10.6646 23.4887C6.65445 19.8383 7.85822 20.9583 7.22733 20.2379L5.72625 23.3556Z" fill="white"/>
</svg>
