<svg width="35" height="30" viewBox="0 0 35 30" fill="none" xmlns="http://www.w3.org/2000/svg">
<path fill-rule="evenodd" clip-rule="evenodd" d="M22.6516 11.4755C21.4825 11.4755 20.5326 10.41 20.5326 9.09848C20.5326 7.78701 21.4825 6.72144 22.6516 6.72144C23.8207 6.72144 24.7706 7.78701 24.7706 9.09848C24.7706 10.41 23.8207 11.4755 22.6516 11.4755ZM22.6518 4.67188C20.4598 4.67188 18.6331 6.72106 18.6331 9.18007C18.6331 11.6391 20.3867 13.6883 22.6518 13.6883C24.8439 13.6883 26.6706 11.6391 26.6706 9.18007C26.6706 6.72106 24.8439 4.67188 22.6518 4.67188ZM32.8812 20.5085L27.7663 15.8199L22.4615 20.6724L11.2528 8.85272L1.97302 18.5003V3.36092C1.97302 2.70518 2.41144 2.21338 2.99599 2.21338H31.8582C32.4427 2.21338 32.8812 2.70518 32.8812 3.36092V20.5085ZM32.8807 26.4757C32.8807 27.1314 32.4423 27.6232 31.8577 27.6232H29.0592L23.9078 22.1888L27.7659 18.6068L32.8807 23.2298V26.4757ZM2.99599 27.623C2.41144 27.623 1.97302 27.1312 1.97302 26.4755V21.4263L11.2528 11.8033L26.2684 27.623H2.99599ZM31.9311 0H3.06889C1.38831 0 0 1.55738 0 3.44262V26.5574C0 28.4426 1.38831 30 3.06889 30H31.9311C33.6117 30 35 28.4426 35 26.5574V3.44262C35 1.55738 33.6117 0 31.9311 0Z" fill="#A8A8A8"/>
</svg>
