<svg width="22" height="22" viewBox="0 0 22 22" fill="none" xmlns="http://www.w3.org/2000/svg">
<path d="M11.9579 22C15.3215 22 18.4062 20.4615 20.4503 17.9276C21.6577 16.431 20.3411 14.2443 18.4751 14.6018C14.9581 15.2757 11.7155 12.5708 11.7155 8.98184C11.7155 6.90112 12.8285 5.01617 14.5955 4.00452C16.2503 3.05705 15.834 0.533156 13.9539 0.183777C13.2955 0.0616235 12.6274 0.000109842 11.9579 0C5.92057 0 1.02441 4.92314 1.02441 11C1.02441 17.0741 5.91784 22 11.9579 22ZM11.9579 2.0625C12.5125 2.0625 13.0551 2.11411 13.5815 2.21195C11.2428 3.55098 9.66542 6.08094 9.66542 8.98184C9.66542 13.8737 14.0918 17.5412 18.8586 16.6279C17.2299 18.6469 14.7439 19.9375 11.9579 19.9375C7.05172 19.9375 3.07445 15.936 3.07445 11C3.07445 6.06396 7.05172 2.0625 11.9579 2.0625Z" fill="#C7CCD1"/>
</svg>
