<svg width="21" height="30" viewBox="0 0 21 30" fill="none" xmlns="http://www.w3.org/2000/svg">
<path d="M10.5873 0C5.91044 0 2.8812 1.91619 0.502936 5.33355C0.0715102 5.95348 0.204518 6.80344 0.806334 7.25977L3.33395 9.17631C3.94174 9.63715 4.80653 9.52939 5.28237 8.93326C6.75008 7.09453 7.83882 6.03586 10.1314 6.03586C11.934 6.03586 14.1636 7.19596 14.1636 8.94393C14.1636 10.2653 13.0728 10.944 11.2929 11.9418C9.21735 13.1055 6.47071 14.5537 6.47071 18.1765V18.75C6.47071 19.5267 7.1003 20.1562 7.87696 20.1562H12.1233C12.9 20.1562 13.5296 19.5267 13.5296 18.75V18.4117C13.5296 15.9004 20.8695 15.7958 20.8695 9C20.8695 3.88219 15.5608 0 10.5873 0ZM10.0002 21.8824C7.76212 21.8824 5.94131 23.7032 5.94131 25.9412C5.94131 28.1792 7.76212 30 10.0002 30C12.2382 30 14.059 28.1792 14.059 25.9412C14.059 23.7031 12.2382 21.8824 10.0002 21.8824Z" fill="white"/>
</svg>
