<svg width="17" height="16" viewBox="0 0 17 16" fill="none" xmlns="http://www.w3.org/2000/svg">
<path d="M10.8245 2.99956C12.1493 2.99956 13.2241 2.32778 13.2241 1.49978C13.2241 0.671777 12.1493 0 10.8245 0C9.49971 0 8.42489 0.671777 8.42489 1.49978C8.42489 2.32778 9.49971 2.99956 10.8245 2.99956ZM15.5487 7.65825L14.3839 7.28956L13.899 6.37094C13.1641 4.9774 11.1144 4.00254 8.78983 3.99941C6.99013 3.99629 5.9953 4.31499 4.12562 4.7868C3.0458 5.05863 2.16095 5.57418 1.64104 6.23034L1.30609 6.65527C0.916158 7.14895 1.2311 7.74886 2.01597 7.9957C2.79584 8.24254 3.74568 8.04257 4.14061 7.54889L4.47556 7.12396C4.65053 6.90524 4.94048 6.73339 5.30042 6.64278L6.64019 6.30533L5.88032 8.20192C5.62036 8.85183 5.90032 9.54235 6.62519 10.0392L9.61969 12.0826C9.97963 12.3294 10.2346 12.6263 10.3646 12.9481L11.2794 15.2384C11.4944 15.7727 12.3642 16.1008 13.2191 15.9664C14.0739 15.8321 14.5988 15.2884 14.3839 14.7541L13.2741 11.9732C13.1441 11.6514 12.8891 11.3515 12.5292 11.1077L10.2546 9.55485L11.1144 7.40829L11.3894 7.92384C11.6543 8.42689 12.2242 8.84245 12.9741 9.07992L14.1389 9.44862C14.9188 9.69545 15.8686 9.49548 16.2636 9.00181C16.6485 8.51125 16.3336 7.90509 15.5487 7.65825ZM4.10562 12.0545C3.94565 12.3076 3.70569 12.5357 3.39574 12.7263L0.896161 14.2917C0.271267 14.6822 0.271267 15.3165 0.896161 15.7071C1.52106 16.0976 2.53088 16.0976 3.15578 15.7071L6.12528 13.8511C6.43023 13.6605 6.67019 13.4324 6.83516 13.1793L7.51004 12.1232C4.74551 10.2391 5.57537 10.8172 5.14044 10.4453L4.10562 12.0545Z" fill="#40E0D0"/>
</svg>
