<svg width="16" height="16" viewBox="0 0 16 16" fill="none" xmlns="http://www.w3.org/2000/svg">
<path d="M13.7703 0.392812L13.8953 2.97937C13.1693 2.12289 12.2652 1.43499 11.2462 0.963613C10.2271 0.492234 9.1175 0.248708 7.99469 0.25C4.21031 0.25 1.05969 2.96625 0.384062 6.55688C0.374068 6.61098 0.3761 6.66661 0.390013 6.71984C0.403927 6.77307 0.429382 6.82258 0.464573 6.86487C0.499764 6.90716 0.543829 6.94119 0.593642 6.96454C0.643455 6.98789 0.697797 7 0.752813 7H2.28562C2.37013 6.99991 2.45212 6.97128 2.51831 6.91876C2.5845 6.86623 2.63102 6.79289 2.65031 6.71063C2.90029 5.67318 3.44683 4.73092 4.22324 3.99881C4.99965 3.26671 5.97236 2.77641 7.02269 2.58775C8.07302 2.39909 9.15555 2.52022 10.1382 2.93635C11.1209 3.35249 11.9612 4.04565 12.5566 4.93125L9.38594 4.77938C9.33521 4.77696 9.28453 4.78488 9.23695 4.80264C9.18938 4.8204 9.14591 4.84764 9.10918 4.88271C9.07245 4.91777 9.04322 4.95993 9.02327 5.00663C9.00332 5.05333 8.99307 5.10359 8.99312 5.15438V6.63594C8.99312 6.73539 9.03263 6.83078 9.10296 6.9011C9.17329 6.97143 9.26867 7.01094 9.36812 7.01094H15.625C15.7245 7.01094 15.8198 6.97143 15.8902 6.9011C15.9605 6.83078 16 6.73539 16 6.63594V0.375C16 0.275544 15.9605 0.180161 15.8902 0.109835C15.8198 0.0395088 15.7245 0 15.625 0L14.1447 0C14.094 2.72867e-05 14.0438 0.0103467 13.9971 0.0303339C13.9505 0.050321 13.9084 0.0795603 13.8734 0.116282C13.8384 0.153004 13.8112 0.196445 13.7935 0.243977C13.7758 0.291508 13.7679 0.342141 13.7703 0.392812ZM7.99469 13.5C7.09298 13.5008 6.20498 13.2793 5.40921 12.8553C4.61343 12.4312 3.93441 11.8176 3.43219 11.0688L6.61344 11.2209C6.66416 11.2233 6.71485 11.2154 6.76242 11.1977C6.80999 11.1799 6.85346 11.1527 6.89019 11.1176C6.92692 11.0825 6.95615 11.0404 6.9761 10.9937C6.99605 10.947 7.00631 10.8967 7.00625 10.8459V9.36469C7.00625 9.26523 6.96674 9.16985 6.89642 9.09952C6.82609 9.0292 6.73071 8.98969 6.63125 8.98969H0.375C0.275544 8.98969 0.180161 9.0292 0.109835 9.09952C0.0395088 9.16985 0 9.26523 0 9.36469L0 15.625C0 15.7245 0.0395088 15.8198 0.109835 15.8902C0.180161 15.9605 0.275544 16 0.375 16H1.85469C1.90555 16.0001 1.9559 15.9898 2.00266 15.9698C2.04942 15.9498 2.09163 15.9205 2.12671 15.8836C2.16179 15.8468 2.18901 15.8032 2.20671 15.7555C2.22441 15.7078 2.23223 15.6571 2.22969 15.6062L2.1 13.0259C2.82591 13.8807 3.72922 14.5671 4.74717 15.0375C5.76512 15.5079 6.8733 15.7511 7.99469 15.75C11.7794 15.75 14.93 13.0337 15.6056 9.44312C15.6156 9.38902 15.6136 9.33339 15.5997 9.28016C15.5858 9.22693 15.5603 9.17742 15.5251 9.13513C15.4899 9.09284 15.4459 9.05881 15.396 9.03546C15.3462 9.01211 15.2919 9 15.2369 9H13.7041C13.6196 9.00009 13.5376 9.02872 13.4714 9.08124C13.4052 9.13377 13.3587 9.20711 13.3394 9.28938C13.0508 10.4895 12.3666 11.5574 11.397 12.3213C10.4275 13.0851 9.22898 13.5003 7.99469 13.5Z" fill="white"/>
</svg>
