<svg width="12" height="12" viewBox="0 0 12 12" fill="none" xmlns="http://www.w3.org/2000/svg">
<path d="M6.23454 0C4.36378 0 3.15209 0.766477 2.20078 2.13342C2.02821 2.38139 2.08142 2.72137 2.32214 2.90391L3.33319 3.67052C3.57631 3.85486 3.92222 3.81176 4.11256 3.5733C4.69964 2.83781 5.13514 2.41434 6.05217 2.41434C6.77321 2.41434 7.66505 2.87838 7.66505 3.57757C7.66505 4.10613 7.22871 4.37759 6.51678 4.77673C5.68655 5.2422 4.58789 5.82148 4.58789 7.27059V7.5C4.58789 7.81066 4.83973 8.0625 5.15039 8.0625H6.84893C7.1596 8.0625 7.41143 7.81066 7.41143 7.5V7.3647C7.41143 6.36016 10.3474 6.31833 10.3474 3.6C10.3474 1.55288 8.22394 0 6.23454 0ZM5.99967 8.75295C5.10446 8.75295 4.37614 9.48127 4.37614 10.3765C4.37614 11.2717 5.10446 12 5.99967 12C6.89489 12 7.62321 11.2717 7.62321 10.3765C7.62321 9.48124 6.89489 8.75295 5.99967 8.75295Z" fill="white"/>
</svg>
