<svg width="23" height="23" viewBox="0 0 23 23" fill="none" xmlns="http://www.w3.org/2000/svg">
<path d="M2.875 20.8438C2.875 21.4156 3.10218 21.9641 3.50655 22.3685C3.91093 22.7728 4.45938 23 5.03125 23H17.9688C18.5406 23 19.0891 22.7728 19.4935 22.3685C19.8978 21.9641 20.125 21.4156 20.125 20.8438V5.75001H2.875V20.8438ZM15.0938 9.34376C15.0938 9.15313 15.1695 8.97032 15.3043 8.83552C15.4391 8.70073 15.6219 8.62501 15.8125 8.62501C16.0031 8.62501 16.1859 8.70073 16.3207 8.83552C16.4555 8.97032 16.5312 9.15313 16.5312 9.34376V19.4063C16.5312 19.5969 16.4555 19.7797 16.3207 19.9145C16.1859 20.0493 16.0031 20.125 15.8125 20.125C15.6219 20.125 15.4391 20.0493 15.3043 19.9145C15.1695 19.7797 15.0938 19.5969 15.0938 19.4063V9.34376ZM10.7812 9.34376C10.7812 9.15313 10.857 8.97032 10.9918 8.83552C11.1266 8.70073 11.3094 8.62501 11.5 8.62501C11.6906 8.62501 11.8734 8.70073 12.0082 8.83552C12.143 8.97032 12.2188 9.15313 12.2188 9.34376V19.4063C12.2188 19.5969 12.143 19.7797 12.0082 19.9145C11.8734 20.0493 11.6906 20.125 11.5 20.125C11.3094 20.125 11.1266 20.0493 10.9918 19.9145C10.857 19.7797 10.7812 19.5969 10.7812 19.4063V9.34376ZM6.46875 9.34376C6.46875 9.15313 6.54448 8.97032 6.67927 8.83552C6.81406 8.70073 6.99688 8.62501 7.1875 8.62501C7.37812 8.62501 7.56094 8.70073 7.69573 8.83552C7.83052 8.97032 7.90625 9.15313 7.90625 9.34376V19.4063C7.90625 19.5969 7.83052 19.7797 7.69573 19.9145C7.56094 20.0493 7.37812 20.125 7.1875 20.125C6.99688 20.125 6.81406 20.0493 6.67927 19.9145C6.54448 19.7797 6.46875 19.5969 6.46875 19.4063V9.34376ZM20.8438 1.43751H15.4531L15.0309 0.597469C14.9414 0.417877 14.8036 0.266809 14.633 0.161259C14.4624 0.0557084 14.2657 -0.000136022 14.065 7.87603e-06H8.93047C8.73029 -0.00076166 8.53394 0.0548746 8.36392 0.160542C8.19389 0.26621 8.05708 0.417635 7.96914 0.597469L7.54688 1.43751H2.15625C1.96563 1.43751 1.78281 1.51323 1.64802 1.64802C1.51323 1.78282 1.4375 1.96563 1.4375 2.15626L1.4375 3.59376C1.4375 3.78438 1.51323 3.9672 1.64802 4.10199C1.78281 4.23678 1.96563 4.31251 2.15625 4.31251H20.8438C21.0344 4.31251 21.2172 4.23678 21.352 4.10199C21.4868 3.9672 21.5625 3.78438 21.5625 3.59376V2.15626C21.5625 1.96563 21.4868 1.78282 21.352 1.64802C21.2172 1.51323 21.0344 1.43751 20.8438 1.43751Z" fill="white"/>
</svg>
