<svg width="13" height="12" viewBox="0 0 13 12" fill="none" xmlns="http://www.w3.org/2000/svg">
<path d="M0.594958 0.292893C0.981985 -0.0976311 1.60948 -0.0976311 1.99651 0.292893L6.25096 4.58579L10.5054 0.292893C10.8924 -0.0976311 11.5199 -0.0976311 11.907 0.292893C12.294 0.683417 12.294 1.31658 11.907 1.70711L7.6525 6L11.907 10.2929C12.294 10.6834 12.294 11.3166 11.907 11.7071C11.5199 12.0976 10.8924 12.0976 10.5054 11.7071L6.25096 7.41421L1.99651 11.7071C1.60948 12.0976 0.981985 12.0976 0.594958 11.7071C0.207931 11.3166 0.207931 10.6834 0.594958 10.2929L4.84941 6L0.594958 1.70711C0.207931 1.31658 0.207931 0.683417 0.594958 0.292893Z" fill="#A2A2A7"/>
</svg>
